<svg xmlns="http://www.w3.org/2000/svg" width="1440" height="900"><path d="M735,571L641,438L564,529Z" fill="#f7f4a4" stroke="#f7f4a4" stroke-width="1.51"/><path d="M564,529L567,646L735,571Z" fill="#e6ea9d" stroke="#e6ea9d" stroke-width="1.51"/><path d="M641,438L527,348L564,529Z" fill="#ffeda1" stroke="#ffeda1" stroke-width="1.51"/><path d="M564,529L422,724L567,646Z" fill="#d8d58f" stroke="#d8d58f" stroke-width="1.51"/><path d="M567,646L734,750L735,571Z" fill="#cee6aa" stroke="#cee6aa" stroke-width="1.51"/><path d="M735,571L838,364L641,438Z" fill="#fdfebb" stroke="#fdfebb" stroke-width="1.51"/><path d="M641,438L632,252L527,348Z" fill="#ffde8c" stroke="#ffde8c" stroke-width="1.51"/><path d="M901,489L838,364L735,571Z" fill="#f3faac" stroke="#f3faac" stroke-width="1.51"/><path d="M859,783L901,489L735,571Z" fill="#d1eca2" stroke="#d1eca2" stroke-width="1.51"/><path d="M838,364L632,252L641,438Z" fill="#ffeba0" stroke="#ffeba0" stroke-width="1.51"/><path d="M567,646L605,980L734,750Z" fill="#aebfaf" stroke="#aebfaf" stroke-width="1.51"/><path d="M343,473L422,724L564,529Z" fill="#ead080" stroke="#ead080" stroke-width="1.51"/><path d="M527,348L343,473L564,529Z" fill="#ffde96" stroke="#ffde96" stroke-width="1.51"/><path d="M339,411L343,473L527,348Z" fill="#ffca81" stroke="#ffca81" stroke-width="1.51"/><path d="M734,750L859,783L735,571Z" fill="#b9e2ab" stroke="#b9e2ab" stroke-width="1.51"/><path d="M751,861L859,783L734,750Z" fill="#a6c3b6" stroke="#a6c3b6" stroke-width="1.51"/><path d="M384,184L339,411L527,348Z" fill="#fdb769" stroke="#fdb769" stroke-width="1.51"/><path d="M605,980L751,861L734,750Z" fill="#afadb4" stroke="#afadb4" stroke-width="1.51"/><path d="M632,252L526,193L527,348Z" fill="#fec373" stroke="#fec373" stroke-width="1.51"/><path d="M453,39L526,193L675,-1Z" fill="#e98d68" stroke="#e98d68" stroke-width="1.51"/><path d="M526,193L384,184L527,348Z" fill="#fdac63" stroke="#fdac63" stroke-width="1.51"/><path d="M1073,278L909,130L838,364Z" fill="#e7c87e" stroke="#e7c87e" stroke-width="1.51"/><path d="M859,783L1098,579L901,489Z" fill="#bbe3a1" stroke="#bbe3a1" stroke-width="1.51"/><path d="M339,411L209,466L343,473Z" fill="#ffba80" stroke="#ffba80" stroke-width="1.51"/><path d="M343,473L150,673L422,724Z" fill="#ddae73" stroke="#ddae73" stroke-width="1.51"/><path d="M91,373L209,466L339,411Z" fill="#f7a879" stroke="#f7a879" stroke-width="1.51"/><path d="M422,724L605,980L567,646Z" fill="#b3b59c" stroke="#b3b59c" stroke-width="1.51"/><path d="M995,1020L1078,852L859,783Z" fill="#8f9ba6" stroke="#8f9ba6" stroke-width="1.51"/><path d="M250,862L605,980L422,724Z" fill="#b48a8b" stroke="#b48a8b" stroke-width="1.51"/><path d="M838,364L909,130L632,252Z" fill="#facd82" stroke="#facd82" stroke-width="1.51"/><path d="M526,193L453,39L384,184Z" fill="#f38958" stroke="#f38958" stroke-width="1.51"/><path d="M1073,278L838,364L901,489Z" fill="#e5e89a" stroke="#e5e89a" stroke-width="1.51"/><path d="M1098,579L1073,278L901,489Z" fill="#d2edb1" stroke="#d2edb1" stroke-width="1.51"/><path d="M150,673L250,862L422,724Z" fill="#bb9079" stroke="#bb9079" stroke-width="1.51"/><path d="M209,466L150,673L343,473Z" fill="#eead6f" stroke="#eead6f" stroke-width="1.51"/><path d="M384,184L91,373L339,411Z" fill="#f99b5e" stroke="#f99b5e" stroke-width="1.51"/><path d="M675,-1L526,193L632,252Z" fill="#f8a56e" stroke="#f8a56e" stroke-width="1.51"/><path d="M909,130L675,-1L632,252Z" fill="#f6ac80" stroke="#f6ac80" stroke-width="1.51"/><path d="M859,783L1078,852L1098,579Z" fill="#87c9a7" stroke="#87c9a7" stroke-width="1.51"/><path d="M995,1020L859,783L751,861Z" fill="#a7a2a3" stroke="#a7a2a3" stroke-width="1.51"/><path d="M1165,793L1205,669L1098,579Z" fill="#77c7a6" stroke="#77c7a6" stroke-width="1.51"/><path d="M1348,397L1175,237L1073,278Z" fill="#bab990" stroke="#bab990" stroke-width="1.51"/><path d="M1078,852L1165,793L1098,579Z" fill="#6dbea8" stroke="#6dbea8" stroke-width="1.51"/><path d="M209,466L-7,630L150,673Z" fill="#d29774" stroke="#d29774" stroke-width="1.51"/><path d="M102,94L91,373L384,184Z" fill="#ed6d4e" stroke="#ed6d4e" stroke-width="1.51"/><path d="M794,1158L995,1020L751,861Z" fill="#aa9fa3" stroke="#aa9fa3" stroke-width="1.51"/><path d="M275,1072L547,1105L605,980Z" fill="#b6838c" stroke="#b6838c" stroke-width="1.51"/><path d="M1073,278L1175,237L909,130Z" fill="#d3b179" stroke="#d3b179" stroke-width="1.51"/><path d="M988,-98L696,-133L675,-1Z" fill="#cf8d75" stroke="#cf8d75" stroke-width="1.51"/><path d="M1348,397L1073,278L1098,579Z" fill="#b7d7ab" stroke="#b7d7ab" stroke-width="1.51"/><path d="M794,1158L751,861L605,980Z" fill="#b3a3b3" stroke="#b3a3b3" stroke-width="1.51"/><path d="M1078,852L1333,922L1165,793Z" fill="#5a8eae" stroke="#5a8eae" stroke-width="1.51"/><path d="M547,1105L794,1158L605,980Z" fill="#b49ca7" stroke="#b49ca7" stroke-width="1.51"/><path d="M453,39L378,-56L384,184Z" fill="#df6c53" stroke="#df6c53" stroke-width="1.51"/><path d="M696,-133L378,-56L453,39Z" fill="#d0745d" stroke="#d0745d" stroke-width="1.51"/><path d="M250,862L275,1072L605,980Z" fill="#b67080" stroke="#b67080" stroke-width="1.51"/><path d="M150,673L99,865L250,862Z" fill="#a77283" stroke="#a77283" stroke-width="1.51"/><path d="M-7,630L99,865L150,673Z" fill="#a68175" stroke="#a68175" stroke-width="1.51"/><path d="M675,-1L696,-133L453,39Z" fill="#d2836b" stroke="#d2836b" stroke-width="1.51"/><path d="M988,-98L675,-1L909,130Z" fill="#cd8e6e" stroke="#cd8e6e" stroke-width="1.51"/><path d="M142,1103L275,1072L250,862Z" fill="#ad5477" stroke="#ad5477" stroke-width="1.51"/><path d="M986,1241L827,1169L715,1359Z" fill="#aa9fa4" stroke="#aa9fa4" stroke-width="1.51"/><path d="M794,1158L827,1169L995,1020Z" fill="#a79ea1" stroke="#a79ea1" stroke-width="1.51"/><path d="M827,1169L794,1158L715,1359Z" fill="#afa1ac" stroke="#afa1ac" stroke-width="1.51"/><path d="M91,373L-7,630L209,466Z" fill="#e29c7a" stroke="#e29c7a" stroke-width="1.51"/><path d="M378,-56L102,94L384,184Z" fill="#e05349" stroke="#e05349" stroke-width="1.51"/><path d="M91,373L-197,474L-7,630Z" fill="#cf8d75" stroke="#cf8d75" stroke-width="1.51"/><path d="M1361,563L1348,397L1098,579Z" fill="#a4c4b1" stroke="#a4c4b1" stroke-width="1.51"/><path d="M1361,563L1098,579L1205,669Z" fill="#8ec4aa" stroke="#8ec4aa" stroke-width="1.51"/><path d="M1333,922L1205,669L1165,793Z" fill="#4899b6" stroke="#4899b6" stroke-width="1.51"/><path d="M1333,922L1361,563L1205,669Z" fill="#55a4b1" stroke="#55a4b1" stroke-width="1.51"/><path d="M1068,-109L988,-98L909,130Z" fill="#b48370" stroke="#b48370" stroke-width="1.51"/><path d="M1068,-109L909,130L1175,237Z" fill="#c39277" stroke="#c39277" stroke-width="1.51"/><path d="M995,1020L1138,1077L1078,852Z" fill="#7d8fa5" stroke="#7d8fa5" stroke-width="1.51"/><path d="M986,1241L1138,1077L995,1020Z" fill="#8492a5" stroke="#8492a5" stroke-width="1.51"/><path d="M102,94L-63,303L91,373Z" fill="#d66752" stroke="#d66752" stroke-width="1.51"/><path d="M860,-286L538,-269L696,-133Z" fill="#d48d7a" stroke="#d48d7a" stroke-width="1.51"/><path d="M1301,102L1068,-109L1175,237Z" fill="#ab817a" stroke="#ab817a" stroke-width="1.51"/><path d="M-7,630L-95,664L99,865Z" fill="#977771" stroke="#977771" stroke-width="1.51"/><path d="M99,865L142,1103L250,862Z" fill="#a64b78" stroke="#a64b78" stroke-width="1.51"/><path d="M-197,474L-95,664L-7,630Z" fill="#bb866f" stroke="#bb866f" stroke-width="1.51"/><path d="M275,1072L280,1261L547,1105Z" fill="#b66e7e" stroke="#b66e7e" stroke-width="1.51"/><path d="M-7,1041L142,1103L99,865Z" fill="#984075" stroke="#984075" stroke-width="1.51"/><path d="M1348,397L1301,102L1175,237Z" fill="#b4978c" stroke="#b4978c" stroke-width="1.51"/><path d="M1138,1077L1333,922L1078,852Z" fill="#6582a7" stroke="#6582a7" stroke-width="1.51"/><path d="M827,1169L986,1241L995,1020Z" fill="#9a99a3" stroke="#9a99a3" stroke-width="1.51"/><path d="M1380,1099L1423,980L1333,922Z" fill="#595ca7" stroke="#595ca7" stroke-width="1.51"/><path d="M715,1359L794,1158L547,1105Z" fill="#b39fad" stroke="#b39fad" stroke-width="1.51"/><path d="M1348,397L1432,365L1301,102Z" fill="#b49291" stroke="#b49291" stroke-width="1.51"/><path d="M1466,505L1432,365L1348,397Z" fill="#b2a3ae" stroke="#b2a3ae" stroke-width="1.51"/><path d="M1466,505L1348,397L1361,563Z" fill="#abacaf" stroke="#abacaf" stroke-width="1.51"/><path d="M102,94L-25,117L-63,303Z" fill="#c84044" stroke="#c84044" stroke-width="1.51"/><path d="M-6,-70L-25,117L102,94Z" fill="#b01d47" stroke="#b01d47" stroke-width="1.51"/><path d="M696,-133L538,-269L378,-56Z" fill="#d17961" stroke="#d17961" stroke-width="1.51"/><path d="M378,-56L60,-74L102,94Z" fill="#bd2e48" stroke="#bd2e48" stroke-width="1.51"/><path d="M860,-286L696,-133L988,-98Z" fill="#ca8c6e" stroke="#ca8c6e" stroke-width="1.51"/><path d="M1551,661L1466,505L1361,563Z" fill="#9d9aa3" stroke="#9d9aa3" stroke-width="1.51"/><path d="M142,1103L280,1261L275,1072Z" fill="#ae5577" stroke="#ae5577" stroke-width="1.51"/><path d="M280,1261L461,1332L547,1105Z" fill="#b67b86" stroke="#b67b86" stroke-width="1.51"/><path d="M461,1332L715,1359L547,1105Z" fill="#b5949b" stroke="#b5949b" stroke-width="1.51"/><path d="M-120,906L-7,1041L99,865Z" fill="#893570" stroke="#893570" stroke-width="1.51"/><path d="M142,1103L145,1297L280,1261Z" fill="#aa4f78" stroke="#aa4f78" stroke-width="1.51"/><path d="M1093,-266L860,-286L988,-98Z" fill="#b58470" stroke="#b58470" stroke-width="1.51"/><path d="M233,-245L60,-74L378,-56Z" fill="#c23646" stroke="#c23646" stroke-width="1.51"/><path d="M-95,664L-150,794L99,865Z" fill="#8e6478" stroke="#8e6478" stroke-width="1.51"/><path d="M-197,474L-150,794L-95,664Z" fill="#ac8071" stroke="#ac8071" stroke-width="1.51"/><path d="M-63,303L-197,474L91,373Z" fill="#d2846c" stroke="#d2846c" stroke-width="1.51"/><path d="M-301,348L-197,474L-63,303Z" fill="#d2826a" stroke="#d2826a" stroke-width="1.51"/><path d="M-148,220L-63,303L-25,117Z" fill="#cb5049" stroke="#cb5049" stroke-width="1.51"/><path d="M-232,47L-148,220L-25,117Z" fill="#c03247" stroke="#c03247" stroke-width="1.51"/><path d="M-150,794L-120,906L99,865Z" fill="#884876" stroke="#884876" stroke-width="1.51"/><path d="M1301,102L1264,-94L1068,-109Z" fill="#916a76" stroke="#916a76" stroke-width="1.51"/><path d="M1068,-109L1093,-266L988,-98Z" fill="#a97e71" stroke="#a97e71" stroke-width="1.51"/><path d="M1569,-2L1264,-94L1301,102Z" fill="#894676" stroke="#894676" stroke-width="1.51"/><path d="M326,-299L233,-245L378,-56Z" fill="#ca4847" stroke="#ca4847" stroke-width="1.51"/><path d="M860,-286L326,-299L538,-269Z" fill="#d18066" stroke="#d18066" stroke-width="1.51"/><path d="M538,-269L326,-299L378,-56Z" fill="#ce6151" stroke="#ce6151" stroke-width="1.51"/><path d="M-138,-206L-6,-70L60,-74Z" fill="#9e0142" stroke="#9e0142" stroke-width="1.51"/><path d="M60,-74L-6,-70L102,94Z" fill="#a81245" stroke="#a81245" stroke-width="1.51"/><path d="M1333,922L1551,661L1361,563Z" fill="#698ea7" stroke="#698ea7" stroke-width="1.51"/><path d="M1380,1099L1333,922L1138,1077Z" fill="#536faf" stroke="#536faf" stroke-width="1.51"/><path d="M1432,365L1568,246L1301,102Z" fill="#b67380" stroke="#b67380" stroke-width="1.51"/><path d="M1663,305L1568,246L1432,365Z" fill="#b6858e" stroke="#b6858e" stroke-width="1.51"/><path d="M1423,980L1551,661L1333,922Z" fill="#585fa9" stroke="#585fa9" stroke-width="1.51"/><path d="M1264,-94L1093,-266L1068,-109Z" fill="#997771" stroke="#997771" stroke-width="1.51"/><path d="M-90,1277L145,1297L142,1103Z" fill="#953e74" stroke="#953e74" stroke-width="1.51"/><path d="M280,1261L145,1297L461,1332Z" fill="#b55f76" stroke="#b55f76" stroke-width="1.51"/><path d="M-90,1277L142,1103L-7,1041Z" fill="#8c3771" stroke="#8c3771" stroke-width="1.51"/><path d="M1671,857L1676,660L1551,661Z" fill="#6887a6" stroke="#6887a6" stroke-width="1.51"/><path d="M1371,1221L1380,1099L1138,1077Z" fill="#506caf" stroke="#506caf" stroke-width="1.51"/><path d="M1117,1376L1138,1077L986,1241Z" fill="#7b8ea5" stroke="#7b8ea5" stroke-width="1.51"/><path d="M1663,305L1432,365L1466,505Z" fill="#b499a3" stroke="#b499a3" stroke-width="1.51"/><path d="M715,1359L1117,1376L986,1241Z" fill="#9999a3" stroke="#9999a3" stroke-width="1.51"/><path d="M-148,220L-301,348L-63,303Z" fill="#cf6c57" stroke="#cf6c57" stroke-width="1.51"/><path d="M-197,474L-246,927L-150,794Z" fill="#957272" stroke="#957272" stroke-width="1.51"/><path d="M-150,794L-246,927L-120,906Z" fill="#894074" stroke="#894074" stroke-width="1.51"/><path d="M-232,47L-301,348L-148,220Z" fill="#ca4c48" stroke="#ca4c48" stroke-width="1.51"/><path d="M-120,906L-290,1044L-7,1041Z" fill="#893570" stroke="#893570" stroke-width="1.51"/><path d="M-301,348L-246,927L-197,474Z" fill="#be876e" stroke="#be876e" stroke-width="1.51"/><path d="M1380,1099L1506,1147L1423,980Z" fill="#5e50a2" stroke="#5e50a2" stroke-width="1.51"/><path d="M1117,1376L1371,1221L1138,1077Z" fill="#617da9" stroke="#617da9" stroke-width="1.51"/><path d="M-138,-206L-232,47L-6,-70Z" fill="#9e0142" stroke="#9e0142" stroke-width="1.51"/><path d="M-6,-70L-232,47L-25,117Z" fill="#a71145" stroke="#a71145" stroke-width="1.51"/><path d="M1551,661L1689,500L1466,505Z" fill="#a49da2" stroke="#a49da2" stroke-width="1.51"/><path d="M1671,857L1551,661L1423,980Z" fill="#5465ac" stroke="#5465ac" stroke-width="1.51"/><path d="M1689,500L1663,305L1466,505Z" fill="#b3a1af" stroke="#b3a1af" stroke-width="1.51"/><path d="M1534,-217L1323,-278L1264,-94Z" fill="#884776" stroke="#884776" stroke-width="1.51"/><path d="M1264,-94L1323,-278L1093,-266Z" fill="#8f6777" stroke="#8f6777" stroke-width="1.51"/><path d="M1676,660L1689,500L1551,661Z" fill="#9397a4" stroke="#9397a4" stroke-width="1.51"/><path d="M1093,-266L1323,-278L860,-286Z" fill="#a27b71" stroke="#a27b71" stroke-width="1.51"/><path d="M860,-286L1323,-278L326,-299Z" fill="#cb8c6f" stroke="#cb8c6f" stroke-width="1.51"/><path d="M1569,-2L1301,102L1568,246Z" fill="#a94e78" stroke="#a94e78" stroke-width="1.51"/><path d="M1371,1221L1506,1147L1380,1099Z" fill="#5d54a4" stroke="#5d54a4" stroke-width="1.51"/><path d="M1573,1398L1506,1147L1371,1221Z" fill="#5e4fa2" stroke="#5e4fa2" stroke-width="1.51"/><path d="M145,1297L-293,1353L461,1332Z" fill="#9d4377" stroke="#9d4377" stroke-width="1.51"/><path d="M461,1332L-293,1353L715,1359Z" fill="#b55e76" stroke="#b55e76" stroke-width="1.51"/><path d="M-290,1044L-90,1277L-7,1041Z" fill="#893570" stroke="#893570" stroke-width="1.51"/><path d="M1723,50L1569,-2L1568,246Z" fill="#a64b78" stroke="#a64b78" stroke-width="1.51"/><path d="M1506,1147L1671,857L1423,980Z" fill="#5e4fa2" stroke="#5e4fa2" stroke-width="1.51"/><path d="M1794,487L1663,305L1689,500Z" fill="#b3a0ae" stroke="#b3a0ae" stroke-width="1.51"/><path d="M-246,927L-290,1044L-120,906Z" fill="#893570" stroke="#893570" stroke-width="1.51"/><path d="M-301,348L-290,1044L-246,927Z" fill="#8e6478" stroke="#8e6478" stroke-width="1.51"/><path d="M233,-245L-138,-206L60,-74Z" fill="#a71245" stroke="#a71245" stroke-width="1.51"/><path d="M-167,-293L-138,-206L233,-245Z" fill="#9e0142" stroke="#9e0142" stroke-width="1.51"/><path d="M1794,487L1689,500L1676,660Z" fill="#a69ea1" stroke="#a69ea1" stroke-width="1.51"/><path d="M1929,334L1732,219L1663,305Z" fill="#b68089" stroke="#b68089" stroke-width="1.51"/><path d="M1663,305L1732,219L1568,246Z" fill="#b67783" stroke="#b67783" stroke-width="1.51"/><path d="M1888,795L1794,487L1676,660Z" fill="#8592a5" stroke="#8592a5" stroke-width="1.51"/><path d="M1663,-168L1534,-217L1569,-2Z" fill="#893570" stroke="#893570" stroke-width="1.51"/><path d="M1569,-2L1534,-217L1264,-94Z" fill="#893570" stroke="#893570" stroke-width="1.51"/><path d="M326,-299L-167,-293L233,-245Z" fill="#b72348" stroke="#b72348" stroke-width="1.51"/><path d="M-138,-206L-167,-293L-232,47Z" fill="#9e0142" stroke="#9e0142" stroke-width="1.51"/><path d="M-232,47L-167,-293L-301,348Z" fill="#a81345" stroke="#a81345" stroke-width="1.51"/><path d="M1732,219L1723,50L1568,246Z" fill="#b35b76" stroke="#b35b76" stroke-width="1.51"/><path d="M1874,183L1723,50L1732,219Z" fill="#af5677" stroke="#af5677" stroke-width="1.51"/><path d="M1723,50L1663,-168L1569,-2Z" fill="#893570" stroke="#893570" stroke-width="1.51"/><path d="M1671,857L1888,795L1676,660Z" fill="#5d79ab" stroke="#5d79ab" stroke-width="1.51"/><path d="M1750,1178L1841,895L1671,857Z" fill="#5e4fa2" stroke="#5e4fa2" stroke-width="1.51"/><path d="M-90,1277L-293,1353L145,1297Z" fill="#893570" stroke="#893570" stroke-width="1.51"/><path d="M715,1359L-293,1353L1117,1376Z" fill="#b68991" stroke="#b68991" stroke-width="1.51"/><path d="M-290,1044L-293,1353L-90,1277Z" fill="#893570" stroke="#893570" stroke-width="1.51"/><path d="M-301,348L-293,1353L-290,1044Z" fill="#893570" stroke="#893570" stroke-width="1.51"/><path d="M1929,334L1874,183L1732,219Z" fill="#b67382" stroke="#b67382" stroke-width="1.51"/><path d="M1841,895L1888,795L1671,857Z" fill="#5760a9" stroke="#5760a9" stroke-width="1.51"/><path d="M-293,1353L1573,1398L1117,1376Z" fill="#ada1a9" stroke="#ada1a9" stroke-width="1.51"/><path d="M1117,1376L1573,1398L1371,1221Z" fill="#5761aa" stroke="#5761aa" stroke-width="1.51"/><path d="M1506,1147L1750,1178L1671,857Z" fill="#5e4fa2" stroke="#5e4fa2" stroke-width="1.51"/><path d="M1723,50L1811,-30L1663,-168Z" fill="#893570" stroke="#893570" stroke-width="1.51"/><path d="M1929,334L1663,305L1794,487Z" fill="#b5969f" stroke="#b5969f" stroke-width="1.51"/><path d="M1720,1312L1750,1178L1506,1147Z" fill="#5e4fa2" stroke="#5e4fa2" stroke-width="1.51"/><path d="M1841,895L1857,1165L1888,795Z" fill="#5e4fa2" stroke="#5e4fa2" stroke-width="1.51"/><path d="M1874,183L1811,-30L1723,50Z" fill="#9d4477" stroke="#9d4477" stroke-width="1.51"/><path d="M1888,795L1929,334L1794,487Z" fill="#a99fa1" stroke="#a99fa1" stroke-width="1.51"/><path d="M1874,183L1932,-218L1811,-30Z" fill="#893570" stroke="#893570" stroke-width="1.51"/><path d="M1573,1398L1720,1312L1506,1147Z" fill="#5e4fa2" stroke="#5e4fa2" stroke-width="1.51"/><path d="M1750,1178L1857,1165L1841,895Z" fill="#5e4fa2" stroke="#5e4fa2" stroke-width="1.51"/><path d="M1720,1312L1790,1228L1750,1178Z" fill="#5e4fa2" stroke="#5e4fa2" stroke-width="1.51"/><path d="M1720,1312L1857,1165L1790,1228Z" fill="#5e4fa2" stroke="#5e4fa2" stroke-width="1.51"/><path d="M1790,1228L1857,1165L1750,1178Z" fill="#5e4fa2" stroke="#5e4fa2" stroke-width="1.51"/><path d="M1888,795L1857,1165L1929,334Z" fill="#5e7aaa" stroke="#5e7aaa" stroke-width="1.51"/><path d="M1929,334L1932,-218L1874,183Z" fill="#a64b78" stroke="#a64b78" stroke-width="1.51"/><path d="M1811,-30L1932,-218L1663,-168Z" fill="#893570" stroke="#893570" stroke-width="1.51"/><path d="M1663,-168L1932,-218L1534,-217Z" fill="#893570" stroke="#893570" stroke-width="1.51"/><path d="M1534,-217L1932,-218L1323,-278Z" fill="#893570" stroke="#893570" stroke-width="1.51"/></svg>